<?xml version="1.0" encoding="UTF-8"?>
<svg version="1.1" xmlns="http://www.w3.org/2000/svg" width="672" height="537">
<path d="M0 0 C221.76 0 443.52 0 672 0 C672 177.21 672 354.42 672 537 C450.24 537 228.48 537 0 537 C0 359.79 0 182.58 0 0 Z " fill="#000000" transform="translate(0,0)"/>
<path d="M0 0 C0 9.57 0 19.14 0 29 C-5.5996875 32.1865625 -5.5996875 32.1865625 -11.3125 35.4375 C-12.48594971 36.1070874 -13.65939941 36.7766748 -14.8684082 37.46655273 C-16.25805786 38.25461304 -16.25805786 38.25461304 -17.67578125 39.05859375 C-18.62364502 39.59798584 -19.57150879 40.13737793 -20.5480957 40.69311523 C-23 42 -23 42 -26 43 C-28.05113457 17.79410482 -28.05113457 17.79410482 -24.88525391 11.93798828 C-21.60013526 8.63939223 -17.3241963 7.41441222 -13 6 C-11.09611366 4.88109298 -9.21704278 3.71803716 -7.375 2.5 C-3.37234043 0 -3.37234043 0 0 0 Z " fill="#9D9D9D" transform="translate(370,240)"/>
<path d="M0 0 C2.59750429 1.29659892 5.04615065 2.76335268 7.5 4.3125 C8.13808594 4.70373047 8.77617187 5.09496094 9.43359375 5.49804688 C13.34859812 7.91189926 17.18699896 10.42857801 21 13 C17.2365221 17.09958437 12.38885532 19.53465734 7.625 22.3125 C6.67882812 22.88806641 5.73265625 23.46363281 4.7578125 24.05664062 C3.84 24.59095703 2.9221875 25.12527344 1.9765625 25.67578125 C0.72480225 26.4169519 0.72480225 26.4169519 -0.55224609 27.1730957 C-3 28 -3 28 -5.60449219 27.25805664 C-8.73534782 25.61381499 -11.82109852 23.90699457 -14.875 22.125 C-15.46152344 21.78597656 -16.04804688 21.44695312 -16.65234375 21.09765625 C-17.83238701 20.41556531 -19.01175581 19.73230611 -20.19042969 19.04785156 C-23.11932243 17.35184405 -26.06004839 15.6767499 -29 14 C-25.24879998 9.65814141 -20.51569809 7.05407533 -15.625 4.1875 C-14.78710938 3.67251953 -13.94921875 3.15753906 -13.0859375 2.62695312 C-5.22118642 -1.99173324 -5.22118642 -1.99173324 0 0 Z " fill="#9F9F9F" transform="translate(341,214)"/>
<path d="M0 0 C3.26322348 1.24985929 6.31038213 2.63558829 9.35546875 4.34765625 C10.14244141 4.78787109 10.92941406 5.22808594 11.74023438 5.68164062 C12.54783203 6.13732422 13.35542969 6.59300781 14.1875 7.0625 C15.805827 7.97034197 17.42430911 8.87790751 19.04296875 9.78515625 C19.75477295 10.18613525 20.46657715 10.58711426 21.19995117 11.00024414 C22.45127419 11.69523502 23.71974327 12.35987163 25 13 C25 22.9 25 32.8 25 43 C21.49622468 41.59848987 18.59777184 40.29878858 15.390625 38.43359375 C14.55402344 37.94826172 13.71742188 37.46292969 12.85546875 36.96289062 C11.99566406 36.45951172 11.13585937 35.95613281 10.25 35.4375 C9.37472656 34.93025391 8.49945313 34.42300781 7.59765625 33.90039062 C1.14223388 30.14223388 1.14223388 30.14223388 0 29 C-0.08775605 26.85441173 -0.10695219 24.70595579 -0.09765625 22.55859375 C-0.09443359 21.25341797 -0.09121094 19.94824219 -0.08789062 18.60351562 C-0.07953401 17.2148431 -0.07106905 15.82617123 -0.0625 14.4375 C-0.05748666 13.04492344 -0.05292347 11.65234519 -0.04882812 10.25976562 C-0.03699434 6.8398013 -0.0205088 3.41992156 0 0 Z " fill="#9C9C9C" transform="translate(305,240)"/>
<path d="M0 0 C3.62310025 1.81155012 7.18606067 3.70047276 10.75 5.625 C13.84375 7.295625 13.84375 7.295625 17 9 C17 16.59 17 24.18 17 32 C14.751875 33.299375 12.50375 34.59875 10.1875 35.9375 C9.13212036 36.55032837 9.13212036 36.55032837 8.05541992 37.17553711 C5.39216384 38.70586708 2.92148456 40.02617181 0 41 C0 27.47 0 13.94 0 0 Z " fill="#F76C77" transform="translate(318,288)"/>
<path d="M0 0 C2.88234892 1.2539032 5.54957468 2.75087749 8.26171875 4.33984375 C9.86080078 5.26603516 9.86080078 5.26603516 11.4921875 6.2109375 C14.07421875 7.90234375 14.07421875 7.90234375 15.07421875 9.90234375 C14.25219971 10.3713208 13.43018066 10.84029785 12.58325195 11.32348633 C9.51724567 13.07304713 6.45152243 14.8231019 3.38598633 16.57348633 C2.06220529 17.32921674 0.73831358 18.08475332 -0.58569336 18.84008789 C-2.4949245 19.92933334 -4.40374915 21.01928818 -6.3125 22.109375 C-6.89915939 22.44387161 -7.48581879 22.77836823 -8.09025574 23.1230011 C-10.6584693 24.59050224 -13.20321482 26.07517799 -15.71411133 27.6394043 C-17.92578125 28.90234375 -17.92578125 28.90234375 -19.92578125 28.90234375 C-21.47867235 16.47921498 -21.47867235 16.47921498 -19.92578125 10.90234375 C-16.0835512 6.84481632 -12.07428669 5.08125402 -6.92578125 2.90234375 C-6.04277344 2.32355469 -5.15976562 1.74476563 -4.25 1.1484375 C-1.92578125 -0.09765625 -1.92578125 -0.09765625 0 0 Z " fill="#BFBFBF" transform="translate(297.92578125,276.09765625)"/>
<path d="M0 0 C0.99441707 5.96650239 2.02622204 12.1601613 0 18 C-4.18876557 22.93048548 -10.82367643 26.26779475 -17 28 C-21.92291101 27.93907288 -25.22520178 25.9734878 -29.375 23.4375 C-30.96441406 22.47650391 -30.96441406 22.47650391 -32.5859375 21.49609375 C-33.38257813 21.00238281 -34.17921875 20.50867188 -35 20 C-32.0389964 16.77149689 -29.07891791 14.7207498 -25.24609375 12.6171875 C-24.14458984 12.00746094 -23.04308594 11.39773438 -21.90820312 10.76953125 C-20.76287109 10.14433594 -19.61753906 9.51914062 -18.4375 8.875 C-16.16485336 7.62332361 -13.89269502 6.37076008 -11.62109375 5.1171875 C-10.6148999 4.56659668 -9.60870605 4.01600586 -8.57202148 3.44873047 C-2.44927536 0 -2.44927536 0 0 0 Z " fill="#F2617F" transform="translate(295,254)"/>
<path d="M0 0 C3.8212156 1.53780628 7.32173637 3.52080144 10.875 5.59375 C13.411875 7.058125 15.94875 8.5225 18.5625 10.03125 C18.5625 15.97125 18.5625 21.91125 18.5625 28.03125 C14.05197864 27.12914573 11.85949822 26.26114929 8.03515625 23.9765625 C6.99552734 23.36167969 5.95589844 22.74679688 4.88476562 22.11328125 C3.80904297 21.46746094 2.73332031 20.82164062 1.625 20.15625 C-0.50813509 18.88637403 -2.64222095 17.61809355 -4.77734375 16.3515625 C-5.71956787 15.78711426 -6.66179199 15.22266602 -7.63256836 14.64111328 C-10.51644626 12.98593956 -13.45027846 11.49027305 -16.4375 10.03125 C-16.4375 9.37125 -16.4375 8.71125 -16.4375 8.03125 C-14.21795349 6.65867523 -11.98914591 5.30865849 -9.75 3.96875 C-9.12416016 3.57880859 -8.49832031 3.18886719 -7.85351562 2.78710938 C-5.21065895 1.22353448 -3.11043852 0.03987742 0 0 Z " fill="#BABABA" transform="translate(276.4375,217.96875)"/>
<path d="M0 0 C0 13.2 0 26.4 0 40 C-11 34 -11 34 -16 31 C-16.56762695 28.5480957 -16.56762695 28.5480957 -16.48828125 25.67578125 C-16.47216797 24.64775391 -16.45605469 23.61972656 -16.43945312 22.56054688 C-16.39755859 21.48869141 -16.35566406 20.41683594 -16.3125 19.3125 C-16.27866211 17.68731445 -16.27866211 17.68731445 -16.24414062 16.02929688 C-16.1851579 13.35148095 -16.10290307 10.67642973 -16 8 C-13.71125827 6.66141476 -11.41930344 5.32898986 -9.125 4 C-8.47402344 3.6184375 -7.82304687 3.236875 -7.15234375 2.84375 C-2.2265625 0 -2.2265625 0 0 0 Z " fill="#BDBDBD" transform="translate(356,289)"/>
<path d="M0 0 C3.58569759 0.67123248 6.26742869 2.17039432 9.39453125 4.01953125 C10.43287109 4.62990234 11.47121094 5.24027344 12.54101562 5.86914062 C13.62060547 6.51044922 14.70019531 7.15175781 15.8125 7.8125 C17.94389216 9.06921101 20.07539965 10.32572642 22.20703125 11.58203125 C23.20686035 12.17322754 24.20668945 12.76442383 25.23681641 13.37353516 C28.47462388 15.27937306 31.7308454 17.14856722 35 19 C32.22511396 21.94831641 29.44880996 24.1937951 26 26.3125 C25.154375 26.84488281 24.30875 27.37726563 23.4375 27.92578125 C20.56793469 29.1904134 19.89338173 28.96152943 17 28 C15.69271633 27.36669294 14.40741918 26.68651214 13.14453125 25.96875 C12.44005859 25.57042969 11.73558594 25.17210937 11.00976562 24.76171875 C10.28466797 24.34535156 9.55957031 23.92898437 8.8125 23.5 C8.07580078 23.08363281 7.33910156 22.66726562 6.58007812 22.23828125 C1.152502 19.152502 1.152502 19.152502 0 18 C-0.08631874 16.65732587 -0.10706473 15.31025678 -0.09765625 13.96484375 C-0.09443359 13.15595703 -0.09121094 12.34707031 -0.08789062 11.51367188 C-0.07951172 10.66353516 -0.07113281 9.81339844 -0.0625 8.9375 C-0.05798828 8.08349609 -0.05347656 7.22949219 -0.04882812 6.34960938 C-0.03700373 4.23304337 -0.01906769 2.11651315 0 0 Z " fill="#EF538D" transform="translate(278,195)"/>
<path d="M0 0 C0.84820312 0.47953125 1.69640625 0.9590625 2.5703125 1.453125 C3.12638184 1.75387939 3.68245117 2.05463379 4.25537109 2.36450195 C6.12807905 3.38627419 7.97486075 4.44549271 9.8203125 5.515625 C10.45710938 5.87978516 11.09390625 6.24394531 11.75 6.61914062 C16.42957002 9.31238252 16.42957002 9.31238252 17.5703125 10.453125 C17.65663124 11.79579913 17.67737723 13.14286822 17.66796875 14.48828125 C17.66474609 15.29716797 17.66152344 16.10605469 17.65820312 16.93945312 C17.64563477 18.2146582 17.64563477 18.2146582 17.6328125 19.515625 C17.62830078 20.36962891 17.62378906 21.22363281 17.61914062 22.10351562 C17.60731623 24.22008163 17.58938019 26.33661185 17.5703125 28.453125 C13.51798953 27.21404293 10.04645105 25.73723844 6.41796875 23.5546875 C5.47630859 22.99265625 4.53464844 22.430625 3.56445312 21.8515625 C2.59701172 21.26632812 1.62957031 20.68109375 0.6328125 20.078125 C-1.29273299 18.9240857 -3.2185091 17.77043111 -5.14453125 16.6171875 C-6.04929199 16.07352539 -6.95405273 15.52986328 -7.88623047 14.96972656 C-11.0436679 13.08702342 -14.22871458 11.26062849 -17.4296875 9.453125 C-14.83430155 6.56240203 -11.85685586 4.6622767 -8.5546875 2.640625 C-7.52601563 1.99480469 -6.49734375 1.34898437 -5.4375 0.68359375 C-2.4296875 -0.546875 -2.4296875 -0.546875 0 0 Z " fill="#F4667A" transform="translate(378.4296875,276.546875)"/>
<path d="M0 0 C1.5528911 12.42312877 1.5528911 12.42312877 0 18 C-3.84223005 22.05752743 -7.85149456 23.82108973 -13 26 C-13.86238281 26.59941406 -14.72476562 27.19882813 -15.61328125 27.81640625 C-18 29 -18 29 -20.44921875 28.3828125 C-21.29097656 27.92648438 -22.13273437 27.47015625 -23 27 C-23.95519531 26.50242188 -24.91039062 26.00484375 -25.89453125 25.4921875 C-26.85746094 24.95851562 -27.82039063 24.42484375 -28.8125 23.875 C-29.78832031 23.33617187 -30.76414062 22.79734375 -31.76953125 22.2421875 C-32.50558594 21.83226562 -33.24164063 21.42234375 -34 21 C-32.66801127 17.0040338 -31.02185737 16.57986563 -27.390625 14.53125 C-26.54488922 14.04887878 -26.54488922 14.04887878 -25.68206787 13.5567627 C-23.87612427 12.52919469 -22.06335524 11.51442074 -20.25 10.5 C-19.04378876 9.81725724 -17.83805361 9.13367262 -16.6328125 8.44921875 C-14.40427412 7.18408013 -12.17272356 5.92502495 -9.93847656 4.66992188 C-8.01768752 3.57834684 -6.11695784 2.45048208 -4.24121094 1.28320312 C-2 0 -2 0 0 0 Z " fill="#BBBBBB" transform="translate(396,195)"/>
<path d="M0 0 C0 12.87 0 25.74 0 39 C-1.98 38.34 -3.96 37.68 -6 37 C-6.91523438 36.76925781 -7.83046875 36.53851563 -8.7734375 36.30078125 C-12.24943435 34.98031999 -13.74439191 34.01458397 -16 31 C-18.00178327 23.67302676 -18.19378785 15.29532649 -16 8 C-12.47195501 2.87187008 -6.14134479 0 0 0 Z " fill="#F04F93" transform="translate(356,172)"/>
<path d="M0 0 C5.64741258 2.25896503 10.68150942 5.05240281 16 8 C16 15.59 16 23.18 16 31 C13.73125 32.32 11.4625 33.64 9.125 35 C8.41230957 35.41765625 7.69961914 35.8353125 6.96533203 36.265625 C2.22222222 39 2.22222222 39 0 39 C0 26.13 0 13.26 0 0 Z " fill="#BCBCBC" transform="translate(319,172)"/>
<path d="M0 0 C4.59065583 1.36086635 8.39109317 3.2346559 12.4921875 5.6953125 C13.08299103 6.04761932 13.67379456 6.39992615 14.28250122 6.76290894 C16.14997058 7.87819411 18.01250592 9.0014302 19.875 10.125 C21.1481187 10.88725147 22.42155331 11.64897555 23.6953125 12.41015625 C26.80055067 14.26735463 29.90141934 16.13171012 33 18 C31.30678764 21.71921694 29.73082547 23.14631651 26.1875 25.25 C25.33542969 25.77078125 24.48335938 26.2915625 23.60546875 26.828125 C20.03084316 28.43590263 17.83949883 28.63982568 14.10766602 27.34179688 C8.92748605 25.12611594 3.5980037 22.42940082 0 18 C-1.92066826 12.15260386 -0.93528369 5.96243353 0 0 Z " fill="#BEBEBE" transform="translate(380,254)"/>
<path d="M0 0 C1.05574219 0.62003906 2.11148437 1.24007812 3.19921875 1.87890625 C4.26785156 2.49636719 5.33648437 3.11382812 6.4375 3.75 C7.24574219 4.30816406 8.05398438 4.86632812 8.88671875 5.44140625 C8.88671875 6.10140625 8.88671875 6.76140625 8.88671875 7.44140625 C8.34370117 7.73797119 7.80068359 8.03453613 7.24121094 8.34008789 C4.70542613 9.72629188 2.17086128 11.1147022 -0.36328125 12.50390625 C-1.72815674 13.25184448 -1.72815674 13.25184448 -3.12060547 14.01489258 C-9.15082219 17.33081594 -15.10718918 20.73517209 -20.99609375 24.296875 C-23.11328125 25.44140625 -23.11328125 25.44140625 -25.11328125 25.44140625 C-27.14351822 13.25998441 -27.14351822 13.25998441 -25.11328125 7.44140625 C-18.71256165 -0.01625875 -8.9347492 -4.47297984 0 0 Z " fill="#F3588A" transform="translate(405.11328125,220.55859375)"/>
<path d="M0 0 C4.77018148 0.53496946 8.04248684 1.88411718 12.16796875 4.30859375 C13.30814453 4.97310547 14.44832031 5.63761719 15.62304688 6.32226562 C16.81127282 7.02721752 17.99942311 7.73229694 19.1875 8.4375 C20.38688363 9.13950315 21.5867495 9.84068306 22.78710938 10.54101562 C31.24632245 15.4975483 31.24632245 15.4975483 35 18 C39.58075788 17.70243031 42.75368494 16.27616815 46.66015625 13.9453125 C47.70107422 13.33042969 48.74199219 12.71554688 49.81445312 12.08203125 C51.42223633 11.11330078 51.42223633 11.11330078 53.0625 10.125 C54.67608398 9.16787109 54.67608398 9.16787109 56.32226562 8.19140625 C62.01240927 4.82793605 62.01240927 4.82793605 67.59545898 1.29248047 C70 0 70 0 74 0 C73.70556641 1.85864258 73.70556641 1.85864258 73 4 C70.4792188 5.7334113 68.04520711 7.22228717 65.375 8.6875 C63.82889053 9.56285507 62.28332893 10.43917843 60.73828125 11.31640625 C59.95146973 11.75871582 59.1646582 12.20102539 58.35400391 12.65673828 C54.05932785 15.10740284 49.85471526 17.70939193 45.64794922 20.30737305 C41.21871542 23 41.21871542 23 39 23 C39.01571045 23.98919434 39.0314209 24.97838867 39.04760742 25.99755859 C39.1018346 29.66137577 39.13632336 33.32515737 39.16479492 36.98925781 C39.17989814 38.57623251 39.20038223 40.16316537 39.22631836 41.75 C39.26263595 44.02875073 39.27971023 46.30695058 39.29296875 48.5859375 C39.30845261 49.29744965 39.32393646 50.00896179 39.33988953 50.74203491 C39.34057617 52.74365234 39.34057617 52.74365234 39 56 C38.01 56.66 37.02 57.32 36 58 C34.49082162 54.98164325 35.20764192 52.38627491 35.4921875 49.04296875 C36.92260718 33.89817008 36.92260718 33.89817008 31.87695312 20.28271484 C26.4971946 16.02783278 20.43710609 13.60838669 14.04785156 11.25292969 C9.0257781 9.18842464 4.17751144 6.48726911 0 3 C0 2.01 0 1.02 0 0 Z " fill="#8A8A8A" transform="translate(300,228)"/>
<path d="M0 0 C0 7.26 0 14.52 0 22 C-3.8671875 24.2275 -3.8671875 24.2275 -7.8125 26.5 C-9.02450073 27.20479492 -9.02450073 27.20479492 -10.26098633 27.92382812 C-10.90318115 28.28927734 -11.54537598 28.65472656 -12.20703125 29.03125 C-12.8616333 29.40830078 -13.51623535 29.78535156 -14.19067383 30.17382812 C-16 31 -16 31 -19 31 C-20.04925378 24.11955393 -21.11950271 16.74576245 -19 10 C-14.95383273 5.11344705 -6.52278897 0 0 0 Z " fill="#8E8E8E" transform="translate(273,192)"/>
<path d="M0 0 C5.625 1.125 5.625 1.125 8.55078125 2.84765625 C9.10677002 3.17000244 9.66275879 3.49234863 10.2355957 3.82446289 C10.92097412 4.23301514 11.60635254 4.64156738 12.3125 5.0625 C14.519375 6.361875 16.72625 7.66125 19 9 C19 16.26 19 23.52 19 31 C15.87087533 29.74835013 13.28626875 28.69858563 10.44921875 27.0546875 C9.89322998 26.73483887 9.33724121 26.41499023 8.7644043 26.08544922 C7.73633667 25.48627686 7.73633667 25.48627686 6.6875 24.875 C4.480625 23.59625 2.27375 22.3175 0 21 C0 14.07 0 7.14 0 0 Z " fill="#9F9F9F" transform="translate(254,277)"/>
<path d="M0 0 C6.81186872 1.60433974 14.62732209 4.21678083 19 10 C20.89237472 16.78134281 19.91885467 24.11000358 19 31 C12.45413032 30.04878376 6.20050163 27.33267926 1.29345703 22.86181641 C-2.92366936 16.79163787 -0.86282531 6.93199546 0 0 Z " fill="#969696" transform="translate(401,192)"/>
<path d="M0 0 C1.04925378 6.88044607 2.11950271 14.25423755 0 21 C-4.19539178 26.06677128 -10.83715376 28.98415505 -17 31 C-17.66 31 -18.32 31 -19 31 C-21.06458056 12.97828852 -21.06458056 12.97828852 -17.78857422 8.25244141 C-14.33427206 5.21147455 -10.2886269 3.60046584 -6 2 C-5.24203125 1.61199219 -4.4840625 1.22398437 -3.703125 0.82421875 C-2 0 -2 0 0 0 Z " fill="#979797" transform="translate(420,277)"/>
<path d="M0 0 C3.32810957 1.74457356 6.59480384 3.53371094 9.78125 5.5234375 C10.37421875 5.87921875 10.9671875 6.235 11.578125 6.6015625 C13.05919043 7.51613747 14.48837216 8.51367287 15.90625 9.5234375 C15.90625 10.1834375 15.90625 10.8434375 15.90625 11.5234375 C13.35321285 13.0624599 10.79085065 14.57938943 8.21875 16.0859375 C7.1369043 16.74239258 7.1369043 16.74239258 6.03320312 17.41210938 C0.68436274 20.51394832 0.68436274 20.51394832 -2.65625 20.5546875 C-6.07041383 19.11023357 -9.22488793 17.35795978 -12.40625 15.4609375 C-13.05142578 15.08388672 -13.69660156 14.70683594 -14.36132812 14.31835938 C-15.94253152 13.39306257 -17.5186646 12.45911069 -19.09375 11.5234375 C-19.09375 10.5334375 -19.09375 9.5434375 -19.09375 8.5234375 C-16.56514529 6.95582271 -14.02465889 5.42034472 -11.46875 3.8984375 C-10.75589844 3.45242188 -10.04304688 3.00640625 -9.30859375 2.546875 C-3.93785164 -0.60658826 -3.93785164 -0.60658826 0 0 Z " fill="#989898" transform="translate(339.09375,324.4765625)"/>
<path d="M0 0 C3.00331499 1.26586004 5.70730541 2.79544687 8.48828125 4.49609375 C12.76010533 7.10216267 12.76010533 7.10216267 17.36328125 8.99609375 C15.53318799 14.48637353 9.45362631 16.76579505 4.51953125 19.33984375 C1.76155647 20.59211338 0.48346173 20.99988892 -2.60546875 20.90234375 C-5.24608233 19.86615361 -7.32113717 18.63179818 -9.63671875 16.99609375 C-10.49652344 16.47917969 -11.35632813 15.96226562 -12.2421875 15.4296875 C-14.48490592 14.04233145 -16.62254581 12.69889696 -18.63671875 10.99609375 C-18.63671875 10.33609375 -18.63671875 9.67609375 -18.63671875 8.99609375 C-16.0836816 7.45707135 -13.5213194 5.94014182 -10.94921875 4.43359375 C-10.22798828 3.99595703 -9.50675781 3.55832031 -8.76367188 3.10742188 C-3.39652719 -0.00503189 -3.39652719 -0.00503189 0 0 Z " fill="#959595" transform="translate(337.63671875,155.00390625)"/>
<path d="M0 0 C0 13.2 0 26.4 0 40 C-5 38 -5 38 -8 36 C-8.63385725 31.48949312 -8.55739089 26.94683245 -8.5559082 22.39697266 C-8.56245876 20.13921467 -8.61687362 17.88588269 -8.67382812 15.62890625 C-8.68263286 14.19272337 -8.68858529 12.7565196 -8.69140625 11.3203125 C-8.70373291 10.01336426 -8.71605957 8.70641602 -8.72875977 7.35986328 C-8 4 -8 4 -5.08178711 1.54248047 C-2 0 -2 0 0 0 Z " fill="#909090" transform="translate(420,230)"/>
<path d="M0 0 C0 2.97 0 5.94 0 9 C-1.03898437 9.50789062 -2.07796875 10.01578125 -3.1484375 10.5390625 C-4.55766853 11.23361087 -5.96649545 11.92897955 -7.375 12.625 C-8.10581787 12.98456787 -8.83663574 13.34413574 -9.58959961 13.71459961 C-13.75063838 15.78799786 -17.67480066 18.00083764 -21.5625 20.5625 C-24.5782208 22.44414704 -26.43214891 23.38986558 -30 22.9375 C-33 22 -33 22 -35 21 C-33.66801127 17.0040338 -32.02185737 16.57986563 -28.390625 14.53125 C-27.54488922 14.04887878 -27.54488922 14.04887878 -26.68206787 13.5567627 C-24.87612427 12.52919469 -23.06335524 11.51442074 -21.25 10.5 C-20.04378876 9.81725724 -18.83805361 9.13367262 -17.6328125 8.44921875 C-15.40427412 7.18408013 -13.17272356 5.92502495 -10.93847656 4.66992188 C-9.03323465 3.5871822 -7.15221473 2.46019322 -5.30371094 1.28320312 C-3 0 -3 0 0 0 Z " fill="#848484" transform="translate(314,169)"/>
<path d="M0 0 C4.37460335 1.31380331 8.03759428 3.02121056 11.94921875 5.37109375 C13.04427734 6.02787109 14.13933594 6.68464844 15.26757812 7.36132812 C16.10977905 7.87288452 16.10977905 7.87288452 16.96899414 8.39477539 C18.68892018 9.43836171 20.41521597 10.47073238 22.14257812 11.50195312 C31.34742973 17.05313652 31.34742973 17.05313652 34 20 C31.75 22.0625 31.75 22.0625 29 24 C25.311405 23.62944482 22.3183074 21.6394496 19.140625 19.83984375 C17.46806641 18.8972168 17.46806641 18.8972168 15.76171875 17.93554688 C14.59108757 17.26963367 13.42051539 16.60361673 12.25 15.9375 C11.06404747 15.26714381 9.87785207 14.59721711 8.69140625 13.92773438 C5.79185213 12.28936843 2.89485649 10.64664758 0 9 C0 6.03 0 3.06 0 0 Z " fill="#888888" transform="translate(361,169)"/>
<path d="M0 0 C2.83596035 1.30585016 5.52683465 2.74573818 8.23950195 4.29150391 C9.26108398 4.87158203 10.28266602 5.45166016 11.33520508 6.04931641 C12.39030273 6.65259766 13.44540039 7.25587891 14.5324707 7.87744141 C15.6069043 8.48845703 16.68133789 9.09947266 17.78833008 9.72900391 C20.43383147 11.23400025 23.0776332 12.74189931 25.7199707 14.25244141 C25.7199707 16.89244141 25.7199707 19.53244141 25.7199707 22.25244141 C21.76182813 21.65923256 18.87749732 20.43269966 15.41137695 18.45166016 C14.41686523 17.88640625 13.42235352 17.32115234 12.39770508 16.73876953 C11.36967773 16.14515625 10.34165039 15.55154297 9.2824707 14.93994141 C8.25831055 14.35792969 7.23415039 13.77591797 6.17895508 13.17626953 C1.24314585 10.35535073 -3.61020953 7.4964843 -8.2800293 4.25244141 C-3.16160069 -1.03660149 -3.16160069 -1.03660149 0 0 Z " fill="#888888" transform="translate(287.280029296875,307.74755859375)"/>
<path d="M0 0 C0.66 0.99 1.32 1.98 2 3 C-4.64682061 8.08813222 -11.74836402 12.27967434 -19 16.4375 C-19.94447998 16.98180664 -20.88895996 17.52611328 -21.86206055 18.08691406 C-22.75320557 18.59319336 -23.64435059 19.09947266 -24.5625 19.62109375 C-25.36816406 20.0792749 -26.17382812 20.53745605 -27.00390625 21.00952148 C-29 22 -29 22 -31 22 C-31 19.03 -31 16.06 -31 13 C-27.56167367 10.96638835 -24.11127102 8.95523327 -20.6484375 6.96362305 C-19.47340231 6.28373966 -18.30177851 5.59792333 -17.13378906 4.90600586 C-15.44995316 3.90990362 -13.75241141 2.9370868 -12.0546875 1.96484375 C-11.03874512 1.3730835 -10.02280273 0.78132324 -8.97607422 0.17163086 C-5.43727995 -1.22153351 -3.60232788 -1.14473975 0 0 Z " fill="#898989" transform="translate(392,309)"/>
<path d="M0 0 C0.66 0 1.32 0 2 0 C2.41511841 0.80050781 2.41511841 0.80050781 2.83862305 1.6171875 C4.11818308 4.07990784 5.40280868 6.53995279 6.6875 9 C7.12255859 9.83917969 7.55761719 10.67835938 8.00585938 11.54296875 C10.50252931 16.3143824 13.12105781 20.91349842 16.09301758 25.40625 C17 27 17 27 17 29 C10.35940531 27.86654042 4.49413882 26.25371158 0 21 C-1.56219391 14.17185844 -0.72379417 6.90481077 0 0 Z " fill="#B3B3B3" transform="translate(254,277)"/>
<path d="M0 0 C3.465 1.98 3.465 1.98 7 4 C7 11.92 7 19.84 7 28 C5.02 28.66 3.04 29.32 1 30 C-0.09911549 26.70265354 -0.1139456 24.27041255 -0.09765625 20.80078125 C-0.09443359 19.59228516 -0.09121094 18.38378906 -0.08789062 17.13867188 C-0.07951172 15.87603516 -0.07113281 14.61339844 -0.0625 13.3125 C-0.05573242 11.40114258 -0.05573242 11.40114258 -0.04882812 9.45117188 C-0.03702873 6.30073436 -0.02056597 3.15039051 0 0 Z " fill="#818181" transform="translate(255,230)"/>
<path d="M0 0 C10.23 0 20.46 0 31 0 C31 0.66 31 1.32 31 2 C28.78045349 3.37257477 26.55164591 4.72259151 24.3125 6.0625 C23.68666016 6.45244141 23.06082031 6.84238281 22.41601562 7.24414062 C19.66540677 8.87146419 17.64252383 10.01835782 14.40234375 9.92578125 C11.56195405 8.83119205 8.92604406 7.57874285 6.25 6.125 C5.28578125 5.61195313 4.3215625 5.09890625 3.328125 4.5703125 C1 3 1 3 0 0 Z " fill="#BABABA" transform="translate(322,335)"/>
<path d="M0 0 C-2.1845871 5.83278846 -5.38934274 10.97380808 -8.5625 16.3125 C-9.46645508 17.85260742 -9.46645508 17.85260742 -10.38867188 19.42382812 C-10.96294922 20.39384766 -11.53722656 21.36386719 -12.12890625 22.36328125 C-12.65556885 23.25313721 -13.18223145 24.14299316 -13.72485352 25.05981445 C-14.14565186 25.70007568 -14.5664502 26.34033691 -15 27 C-15.33 27 -15.66 27 -16 27 C-17.37677054 9.83286119 -17.37677054 9.83286119 -14.1015625 5.47265625 C-11.77282266 3.99175858 -9.58143253 2.95856303 -7 2 C-4 0 -4 0 0 0 Z " fill="#BABABA" transform="translate(271,194)"/>
<path d="M0 0 C2.3460129 1.27614301 4.56824328 2.56887977 6.8125 4 C7.40998047 4.36867187 8.00746094 4.73734375 8.62304688 5.1171875 C10.10365034 6.0444683 11.5549202 7.01827668 13 8 C13 8.33 13 8.66 13 9 C3.43 9 -6.14 9 -16 9 C-15 5 -15 5 -12.890625 3.26171875 C-12.01921875 2.74222656 -11.1478125 2.22273437 -10.25 1.6875 C-8.95835937 0.88892578 -8.95835937 0.88892578 -7.640625 0.07421875 C-4.41576929 -1.23766782 -3.26484549 -1.15374239 0 0 Z " fill="#BCBCBC" transform="translate(340,156)"/>
<path d="M0 0 C0.33 0 0.66 0 1 0 C2.36707075 17.04619082 2.36707075 17.04619082 -0.79296875 21.5625 C-4.84079277 24.2746099 -9.10235987 25.74883897 -14 26 C-10.53965304 16.90842803 -5.38658218 8.08864621 0 0 Z " fill="#C0C0C0" transform="translate(418,279)"/>
<path d="M0 0 C4.89764013 0.25116103 9.15920723 1.7253901 13.20703125 4.4375 C17.33420085 10.33602562 15.54985631 19.14376701 15 26 C11.08378683 21.47770622 8.21609552 16.47786582 5.25 11.3125 C4.74339844 10.44560547 4.23679687 9.57871094 3.71484375 8.68554688 C3.23660156 7.85732422 2.75835937 7.02910156 2.265625 6.17578125 C1.83024414 5.42208252 1.39486328 4.66838379 0.94628906 3.8918457 C0 2 0 2 0 0 Z " fill="#BFBFBF" transform="translate(404,195)"/>
<path d="M0 0 C8.21599595 4.34673934 16.1266259 9.06818856 24 14 C21.59310197 16.72675159 19.07528977 18.11966596 15.8125 19.6875 C14.46091797 20.34298828 14.46091797 20.34298828 13.08203125 21.01171875 C12.05142578 21.50091797 12.05142578 21.50091797 11 22 C10.91363281 21.33613281 10.82726562 20.67226562 10.73828125 19.98828125 C9.80870316 14.14643729 8.91138365 10.74200659 4 7 C1.83379456 5.70480005 1.83379456 5.70480005 0 5 C0 3.35 0 1.7 0 0 Z " fill="#8E8E8E" transform="translate(338,213)"/>
<path d="M0 0 C0 4.95 0 9.9 0 15 C-1.32 14.01 -2.64 13.02 -4 12 C-4.99 11.67 -5.98 11.34 -7 11 C-7 19.25 -7 27.5 -7 36 C-7.33 36 -7.66 36 -8 36 C-8.14854953 31.51608964 -8.25730304 27.03348882 -8.32958984 22.54785156 C-8.35972677 21.02285817 -8.40064608 19.49803763 -8.45263672 17.97363281 C-8.52560493 15.77886359 -8.5594814 13.58638749 -8.5859375 11.390625 C-8.61690521 10.7113092 -8.64787292 10.03199341 -8.67977905 9.33209229 C-8.68115234 7.39160156 -8.68115234 7.39160156 -8 4 C-3.26933756 0 -3.26933756 0 0 0 Z " fill="#4F4F4F" transform="translate(420,230)"/>
<path d="M0 0 C3.3 1.65 6.6 3.3 10 5 C10 7.64 10 10.28 10 13 C5.85701333 12.40165275 2.81805623 10.99335715 -0.8125 8.9375 C-1.78832031 8.38964844 -2.76414062 7.84179688 -3.76953125 7.27734375 C-4.87361328 6.64505859 -4.87361328 6.64505859 -6 6 C-5.195625 5.38125 -4.39125 4.7625 -3.5625 4.125 C-0.96125481 2.25835959 -0.96125481 2.25835959 0 0 Z " fill="#5A5A5A" transform="translate(303,317)"/>
<path d="M0 0 C0.33 0 0.66 0 1 0 C1.02505615 0.80743652 1.0501123 1.61487305 1.07592773 2.44677734 C1.19165487 6.08968917 1.31448635 9.73232726 1.4375 13.375 C1.47681641 14.64601562 1.51613281 15.91703125 1.55664062 17.2265625 C1.59853516 18.43828125 1.64042969 19.65 1.68359375 20.8984375 C1.72025146 22.01911621 1.75690918 23.13979492 1.79467773 24.29443359 C1.82596013 26.96712771 1.82596013 26.96712771 3 29 C4.65 28.67 6.3 28.34 8 28 C8 30.64 8 33.28 8 36 C6.35 36.66 4.7 37.32 3 38 C3 38.66 3 39.32 3 40 C2.01 40 1.02 40 0 40 C0 26.8 0 13.6 0 0 Z " fill="#424242" transform="translate(254,230)"/>
<path d="M0 0 C0.33 2.31 0.66 4.62 1 7 C-3.77797795 9.91340119 -6.55670531 10.25614493 -12 9 C-12.66 8.67 -13.32 8.34 -14 8 C-12.74539271 4.23617813 -11.47381388 3.74958162 -8.125 1.75 C-7.24070312 1.20859375 -6.35640625 0.6671875 -5.4453125 0.109375 C-3 -1 -3 -1 0 0 Z " fill="#4D4D4D" transform="translate(293,182)"/>
<path d="M0 0 C1.98 0.495 1.98 0.495 4 1 C4 6.94 4 12.88 4 19 C2.35 19 0.7 19 -1 19 C-1.02683987 16.02077407 -1.04676037 13.04178705 -1.0625 10.0625 C-1.07087891 9.21236328 -1.07925781 8.36222656 -1.08789062 7.48632812 C-1.09111328 6.67744141 -1.09433594 5.86855469 -1.09765625 5.03515625 C-1.10289307 4.2862915 -1.10812988 3.53742676 -1.11352539 2.76586914 C-1 1 -1 1 0 0 Z " fill="#919191" transform="translate(257,232)"/>
<path d="M0 0 C0.66 0.99 1.32 1.98 2 3 C0.4050992 4.19991599 -1.20126147 5.38461318 -2.8125 6.5625 C-3.70582031 7.22378906 -4.59914063 7.88507813 -5.51953125 8.56640625 C-6.33808594 9.03949219 -7.15664063 9.51257813 -8 10 C-8.99 9.67 -9.98 9.34 -11 9 C-11 7.35 -11 5.7 -11 4 C-11.66 3.67 -12.32 3.34 -13 3 C-5.53112033 -1.92946058 -5.53112033 -1.92946058 0 0 Z " fill="#545454" transform="translate(392,309)"/>
<path d="M0 0 C4.8274799 1.41292095 8.7162359 3.42974154 13 6 C12.2884375 6.8971875 12.2884375 6.8971875 11.5625 7.8125 C9.83534256 10.00382924 9.83534256 10.00382924 9 13 C5.89656201 11.79310745 2.98806107 10.49403054 0 9 C0 6.03 0 3.06 0 0 Z " fill="#505050" transform="translate(361,169)"/>
<path d="M0 0 C0.99 0 1.98 0 3 0 C3 9.57 3 19.14 3 29 C-0.42375 30.98 -3.8475 32.96 -7.375 35 C-8.45313965 35.62648438 -9.5312793 36.25296875 -10.64208984 36.8984375 C-11.91366943 37.62933594 -11.91366943 37.62933594 -13.2109375 38.375 C-14.08024902 38.87773437 -14.94956055 39.38046875 -15.84521484 39.8984375 C-18 41 -18 41 -20 41 C-18.72995023 37.18985068 -17.48886603 36.82372543 -14 35 C-13.195625 34.7525 -12.39125 34.505 -11.5625 34.25 C-7.75134687 32.39090091 -5.57058006 29.30376956 -3 26 C-1.35 26.66 0.3 27.32 2 28 C2 19.09 2 10.18 2 1 C1.34 0.67 0.68 0.34 0 0 Z " fill="#7E7E7E" transform="translate(367,240)"/>
<path d="M0 0 C0.99 0.33 1.98 0.66 3 1 C2.67 13.21 2.34 25.42 2 38 C2.99 38.33 3.98 38.66 5 39 C3.35 39.66 1.7 40.32 0 41 C0 27.47 0 13.94 0 0 Z " fill="#B04D54" transform="translate(318,288)"/>
<path d="M0 0 C5.31455478 0.515103 8.90623121 2.36164705 13.375 5.0625 C14.01566406 5.43955078 14.65632813 5.81660156 15.31640625 6.20507812 C16.88254066 7.12839617 18.44198034 8.06305393 20 9 C19.01 9.33 18.02 9.66 17 10 C17.33 10.99 17.66 11.98 18 13 C13.78362915 11.46749609 10.00879365 9.38424475 6.1875 7.0625 C5.59001953 6.71509766 4.99253906 6.36769531 4.37695312 6.00976562 C2.66796875 4.97265625 2.66796875 4.97265625 0 3 C0 2.01 0 1.02 0 0 Z " fill="#747474" transform="translate(300,228)"/>
<path d="M0 0 C0.33 0 0.66 0 1 0 C1 4.29 1 8.58 1 13 C-4.625 16 -4.625 16 -8 16 C-7.8525372 9.06924861 -4.63021832 5.00472127 0 0 Z " fill="#A5A5A5" transform="translate(272,201)"/>
<path d="M0 0 C0 0.99 0 1.98 0 3 C-6.44020758 7.19868078 -6.44020758 7.19868078 -10.0546875 6.73828125 C-11.9375 6 -11.9375 6 -15 4 C-15.9375 1.8125 -15.9375 1.8125 -16 0 C-10.67099269 -1.29188056 -5.28305817 -1.69057861 0 0 Z " fill="#A2A2A2" transform="translate(345,169)"/>
<path d="M0 0 C-0.05859375 1.734375 -0.05859375 1.734375 -1 4 C-3.34727113 5.5899933 -5.57133847 6.93501737 -8.0625 8.25 C-8.72572266 8.61351562 -9.38894531 8.97703125 -10.07226562 9.3515625 C-11.70845105 10.24616748 -13.35342724 11.12466067 -15 12 C-15 11.01 -15 10.02 -15 9 C-15.99 8.67 -16.98 8.34 -18 8 C-15.75583701 6.65590238 -13.50557204 5.32470104 -11.25 4 C-10.29867188 3.42765625 -10.29867188 3.42765625 -9.328125 2.84375 C-5.86028524 0.82084348 -4.10651746 0 0 0 Z " fill="#424242" transform="translate(374,228)"/>
<path d="M0 0 C0.33 0 0.66 0 1 0 C1 13.53 1 27.06 1 41 C-0.98 41.495 -0.98 41.495 -3 42 C-4 41 -4 41 -4.09765625 39.15234375 C-4.06510417 37.1015625 -4.03255208 35.05078125 -4 33 C-3.01 33 -2.02 33 -1 33 C-0.67 22.11 -0.34 11.22 0 0 Z " fill="#2D2D2D" transform="translate(339,251)"/>
<path d="M0 0 C3.3 1.65 6.6 3.3 10 5 C9.67 8.63 9.34 12.26 9 16 C4.49583156 12.32993682 2.23209799 7.25091904 0 2 C0 1.34 0 0.68 0 0 Z " fill="#979797" transform="translate(256,277)"/>
<path d="M0 0 C0.33 0 0.66 0 1 0 C1 7.92 1 15.84 1 24 C1.99 24 2.98 24 4 24 C4.08096803 25.45742463 4.13917774 26.91612807 4.1875 28.375 C4.22230469 29.18710937 4.25710938 29.99921875 4.29296875 30.8359375 C4.19628906 31.55007813 4.09960938 32.26421875 4 33 C3.01 33.66 2.02 34.32 1 35 C-0.50606515 31.98786971 -0.12160331 28.88717378 -0.09765625 25.5859375 C-0.0962413 24.85629791 -0.09482635 24.12665833 -0.09336853 23.37490845 C-0.08776531 21.04156415 -0.07521235 18.70831536 -0.0625 16.375 C-0.05748541 14.79427222 -0.05292243 13.21354293 -0.04882812 11.6328125 C-0.03779484 7.75517146 -0.02052811 3.87760193 0 0 Z " fill="#7E7E7E" transform="translate(335,251)"/>
<path d="M0 0 C2.375 0.3125 2.375 0.3125 5 1 C7.29755922 4.44633882 7.23643976 5.71068391 7.1953125 9.76171875 C7.18886719 10.87998047 7.18242187 11.99824219 7.17578125 13.15039062 C7.15902344 14.31763672 7.14226562 15.48488281 7.125 16.6875 C7.11597656 17.86634766 7.10695313 19.04519531 7.09765625 20.25976562 C7.07406423 23.17338026 7.0411454 26.08658892 7 29 C6.34 28.67 5.68 28.34 5 28 C5 21.07 5 14.14 5 7 C3.35 7.33 1.7 7.66 0 8 C0 5.36 0 2.72 0 0 Z " fill="#6E6E6E" transform="translate(413,241)"/>
<path d="M0 0 C5 2 5 2 7 4 C5.77216797 4.41185547 5.77216797 4.41185547 4.51953125 4.83203125 C1.81658081 6.70044605 1.81658081 6.70044605 1.58740234 9.21630859 C1.50698691 12.05367636 1.56582857 14.85161986 1.6875 17.6875 C1.71005859 18.67556641 1.73261719 19.66363281 1.75585938 20.68164062 C1.81482012 23.12261559 1.89704952 25.56054868 2 28 C1.34 28 0.68 28 0 28 C0 18.76 0 9.52 0 0 Z " fill="#6D6D6D" transform="translate(305,240)"/>
<path d="M0 0 C0.99 0.33 1.98 0.66 3 1 C3 3.64 3 6.28 3 9 C-0.82097239 8.46930939 -3.06171403 7.50298434 -6 5 C-1.60546875 0.99609375 -1.60546875 0.99609375 0 0 Z " fill="#454545" transform="translate(310,321)"/>
<path d="M0 0 C0.99 0 1.98 0 3 0 C3 9.57 3 19.14 3 29 C1.02 29.99 -0.96 30.98 -3 32 C-2.67 30.68 -2.34 29.36 -2 28 C-0.68 28 0.64 28 2 28 C2 19.09 2 10.18 2 1 C1.34 0.67 0.68 0.34 0 0 Z " fill="#757575" transform="translate(367,240)"/>
<path d="M0 0 C4.87362847 0.45336079 7.39042389 1.7089159 11 5 C10.01 5 9.02 5 8 5 C8 5.66 8 6.32 8 7 C5.0280615 5.87548273 2.66559313 4.77706209 0 3 C0 2.01 0 1.02 0 0 Z " fill="#414141" transform="translate(300,228)"/>
<path d="M0 0 C0.33 0 0.66 0 1 0 C1 5.61 1 11.22 1 17 C1.66 17.33 2.32 17.66 3 18 C1.68 18.33 0.36 18.66 -1 19 C-1.02683987 16.02077407 -1.04676037 13.04178705 -1.0625 10.0625 C-1.07087891 9.21236328 -1.07925781 8.36222656 -1.08789062 7.48632812 C-1.09111328 6.67744141 -1.09433594 5.86855469 -1.09765625 5.03515625 C-1.10289307 4.2862915 -1.10812988 3.53742676 -1.11352539 2.76586914 C-1 1 -1 1 0 0 Z " fill="#8B8B8B" transform="translate(279,286)"/>
<path d="M0 0 C3.25696479 0.41755959 4.63443291 0.63443291 7 3 C6.21625 3.268125 5.4325 3.53625 4.625 3.8125 C1.71885077 4.84814432 1.71885077 4.84814432 0 8 C-0.66 7.67 -1.32 7.34 -2 7 C-1.125 1.125 -1.125 1.125 0 0 Z " fill="#6F6F6F" transform="translate(372,176)"/>
<path d="M0 0 C1.33333333 0 2.66666667 0 4 0 C4 2.97 4 5.94 4 9 C2.68 8.67 1.36 8.34 0 8 C0 5.36 0 2.72 0 0 Z " fill="#434343" transform="translate(335,284)"/>
<path d="M0 0 C0.33 0.99 0.66 1.98 1 3 C-1.31 4.32 -3.62 5.64 -6 7 C-6 6.01 -6 5.02 -6 4 C-6.99 3.67 -7.98 3.34 -9 3 C-3.375 0 -3.375 0 0 0 Z " fill="#656565" transform="translate(365,233)"/>
<path d="M0 0 C1.77433812 0.93084971 3.54435149 1.86994613 5.3125 2.8125 C6.29863281 3.33457031 7.28476562 3.85664063 8.30078125 4.39453125 C10.61665068 5.7719876 12.23611001 6.99530591 14 9 C10.59687262 7.94124926 7.98646769 6.99097846 5 5 C2.37468476 4.83286431 2.37468476 4.83286431 0 5 C0 3.35 0 1.7 0 0 Z " fill="#626262" transform="translate(338,213)"/>
<path d="M0 0 C0.99 0.33 1.98 0.66 3 1 C2.42655063 3.86724686 2.1385485 4.8614515 0 7 C-3.125 6.625 -3.125 6.625 -6 6 C-5.195625 5.38125 -4.39125 4.7625 -3.5625 4.125 C-0.96125481 2.25835959 -0.96125481 2.25835959 0 0 Z " fill="#6A6A6A" transform="translate(303,317)"/>
<path d="M0 0 C1.98 0.99 3.96 1.98 6 3 C6 4.98 6 6.96 6 9 C3 8 3 8 1.3125 5.0625 C0 2 0 2 0 0 Z " fill="#8C8C8C" transform="translate(256,277)"/>
<path d="M0 0 C0.33 0.66 0.66 1.32 1 2 C2.98 1.67 4.96 1.34 7 1 C6.67 2.65 6.34 4.3 6 6 C4.35 6.33 2.7 6.66 1 7 C0.67 4.69 0.34 2.38 0 0 Z " fill="#696969" transform="translate(255,253)"/>
<path d="M0 0 C0.99 1.485 0.99 1.485 2 3 C2.66 2.67 3.32 2.34 4 2 C4.1875 4.875 4.1875 4.875 4 8 C3.01 8.66 2.02 9.32 1 10 C-0.60725635 6.78548731 -0.05748185 3.56387464 0 0 Z " fill="#616161" transform="translate(335,276)"/>
<path d="M0 0 C0.66 0 1.32 0 2 0 C1.67 0.99 1.34 1.98 1 3 C0.92948886 5.73865287 0.90642235 8.45027588 0.9375 11.1875 C0.94201172 11.93708984 0.94652344 12.68667969 0.95117188 13.45898438 C0.96293646 15.30602383 0.98087135 17.15302213 1 19 C0.34 19 -0.32 19 -1 19 C-1.02683987 16.02077407 -1.04676037 13.04178705 -1.0625 10.0625 C-1.07087891 9.21236328 -1.07925781 8.36222656 -1.08789062 7.48632812 C-1.09111328 6.67744141 -1.09433594 5.86855469 -1.09765625 5.03515625 C-1.10289307 4.2862915 -1.10812988 3.53742676 -1.11352539 2.76586914 C-1 1 -1 1 0 0 Z " fill="#E35480" transform="translate(381,227)"/>
<path d="M0 0 C2.31 0.33 4.62 0.66 7 1 C6.01 1.495 6.01 1.495 5 2 C5 2.99 5 3.98 5 5 C2.525 4.01 2.525 4.01 0 3 C0 2.01 0 1.02 0 0 Z " fill="#5C5C5C" transform="translate(308,233)"/>
<path d="M0 0 C0.66 0.33 1.32 0.66 2 1 C1.67 2.98 1.34 4.96 1 7 C1.66 7.33 2.32 7.66 3 8 C1.68 8.33 0.36 8.66 -1 9 C-1.33 6.36 -1.66 3.72 -2 1 C-1.34 0.67 -0.68 0.34 0 0 Z " fill="#6F6F6F" transform="translate(294,179)"/>
<path d="M0 0 C4.43090471 1.20842856 6.98112756 2.51668565 10 6 C8.02 6.99 8.02 6.99 6 8 C5.9071875 7.1028125 5.9071875 7.1028125 5.8125 6.1875 C4.67894758 3.13562809 2.79112005 2.5029108 0 1 C0 0.67 0 0.34 0 0 Z " fill="#696969" transform="translate(352,222)"/>
<path d="M0 0 C1.32 0 2.64 0 4 0 C4.33 2.31 4.66 4.62 5 7 C4.01 7.33 3.02 7.66 2 8 C2 5.69 2 3.38 2 1 C1.34 0.67 0.68 0.34 0 0 Z " fill="#767676" transform="translate(377,313)"/>
<path d="M0 0 C1.98 0.66 3.96 1.32 6 2 C1.125 6 1.125 6 0 6 C0 4.02 0 2.04 0 0 Z " fill="#7F7F7F" transform="translate(306,241)"/>
<path d="M0 0 C0.66 0.33 1.32 0.66 2 1 C1.0409375 1.804375 1.0409375 1.804375 0.0625 2.625 C-2.38529404 5.44367193 -2.66714612 7.33860732 -3 11 C-3.33 11 -3.66 11 -4 11 C-4.35233161 5.62694301 -4.35233161 5.62694301 -4 3 C-2 1 -2 1 0 0 Z " fill="#363636" transform="translate(416,231)"/>
<path d="M0 0 C2.7839183 1.39195915 2.97898997 3.15575779 4 6 C1.5625 5.1875 1.5625 5.1875 -1 4 C-1.33 3.01 -1.66 2.02 -2 1 C-1.34 0.67 -0.68 0.34 0 0 Z " fill="#737373" transform="translate(321,163)"/>
<path d="M0 0 C1.98 0.99 1.98 0.99 4 2 C3.34 2.66 2.68 3.32 2 4 C1.83312552 6.58354218 1.83312552 6.58354218 2 9 C1.34 9 0.68 9 0 9 C0 6.03 0 3.06 0 0 Z " fill="#363636" transform="translate(361,169)"/>
</svg>
